<svg xmlns="http://www.w3.org/2000/svg" width="2" height="800" viewBox="0 0 2 800" id="svg">
<g stroke="rgba(48,48,48,1.0)" stroke-width="2" fill="none"><path d="M 0 0 L 2 0"></path><path d="M 0 5.128205128205129 L 2 5.128205128205129"></path><path d="M 0 10.256410256410257 L 2 10.256410256410257"></path><path d="M 0 15.384615384615385 L 2 15.384615384615385"></path><path d="M 0 20.512820512820515 L 2 20.512820512820515"></path><path d="M 0 25.641025641025642 L 2 25.641025641025642"></path><path d="M 0 30.76923076923077 L 2 30.76923076923077"></path><path d="M 0 35.8974358974359 L 2 35.8974358974359"></path><path d="M 0 41.02564102564103 L 2 41.02564102564103"></path><path d="M 0 46.15384615384615 L 2 46.15384615384615"></path><path d="M 0 51.282051282051285 L 2 51.282051282051285"></path><path d="M 0 56.41025641025641 L 2 56.41025641025641"></path><path d="M 0 61.53846153846154 L 2 61.53846153846154"></path><path d="M 0 66.66666666666667 L 2 66.66666666666667"></path><path d="M 0 71.7948717948718 L 2 71.7948717948718"></path><path d="M 0 76.92307692307692 L 2 76.92307692307692"></path><path d="M 0 82.05128205128206 L 2 82.05128205128206"></path><path d="M 0 87.17948717948718 L 2 87.17948717948718"></path><path d="M 0 92.3076923076923 L 2 92.3076923076923"></path><path d="M 0 97.43589743589743 L 2 97.43589743589743"></path><path d="M 0 102.56410256410257 L 2 102.56410256410257"></path><path d="M 0 107.6923076923077 L 2 107.6923076923077"></path><path d="M 0 112.82051282051282 L 2 112.82051282051282"></path><path d="M 0 117.94871794871794 L 2 117.94871794871794"></path><path d="M 0 123.07692307692308 L 2 123.07692307692308"></path><path d="M 0 128.2051282051282 L 2 128.2051282051282"></path><path d="M 0 133.33333333333334 L 2 133.33333333333334"></path><path d="M 0 138.46153846153845 L 2 138.46153846153845"></path><path d="M 0 143.5897435897436 L 2 143.5897435897436"></path><path d="M 0 148.71794871794873 L 2 148.71794871794873"></path><path d="M 0 153.84615384615384 L 2 153.84615384615384"></path><path d="M 0 158.97435897435898 L 2 158.97435897435898"></path><path d="M 0 164.10256410256412 L 2 164.10256410256412"></path><path d="M 0 169.23076923076923 L 2 169.23076923076923"></path><path d="M 0 174.35897435897436 L 2 174.35897435897436"></path><path d="M 0 179.48717948717947 L 2 179.48717948717947"></path><path d="M 0 184.6153846153846 L 2 184.6153846153846"></path><path d="M 0 189.74358974358975 L 2 189.74358974358975"></path><path d="M 0 194.87179487179486 L 2 194.87179487179486"></path><path d="M 0 200 L 2 200"></path><path d="M 0 205.12820512820514 L 2 205.12820512820514"></path><path d="M 0 210.25641025641025 L 2 210.25641025641025"></path><path d="M 0 215.3846153846154 L 2 215.3846153846154"></path><path d="M 0 220.51282051282053 L 2 220.51282051282053"></path><path d="M 0 225.64102564102564 L 2 225.64102564102564"></path><path d="M 0 230.76923076923077 L 2 230.76923076923077"></path><path d="M 0 235.89743589743588 L 2 235.89743589743588"></path><path d="M 0 241.02564102564102 L 2 241.02564102564102"></path><path d="M 0 246.15384615384616 L 2 246.15384615384616"></path><path d="M 0 251.28205128205127 L 2 251.28205128205127"></path><path d="M 0 256.4102564102564 L 2 256.4102564102564"></path><path d="M 0 261.53846153846155 L 2 261.53846153846155"></path><path d="M 0 266.6666666666667 L 2 266.6666666666667"></path><path d="M 0 271.79487179487177 L 2 271.79487179487177"></path><path d="M 0 276.9230769230769 L 2 276.9230769230769"></path><path d="M 0 282.05128205128204 L 2 282.05128205128204"></path><path d="M 0 287.1794871794872 L 2 287.1794871794872"></path><path d="M 0 292.3076923076923 L 2 292.3076923076923"></path><path d="M 0 297.43589743589746 L 2 297.43589743589746"></path><path d="M 0 302.56410256410254 L 2 302.56410256410254"></path><path d="M 0 307.6923076923077 L 2 307.6923076923077"></path><path d="M 0 312.8205128205128 L 2 312.8205128205128"></path><path d="M 0 317.94871794871796 L 2 317.94871794871796"></path><path d="M 0 323.0769230769231 L 2 323.0769230769231"></path><path d="M 0 328.20512820512823 L 2 328.20512820512823"></path><path d="M 0 333.3333333333333 L 2 333.3333333333333"></path><path d="M 0 338.46153846153845 L 2 338.46153846153845"></path><path d="M 0 343.5897435897436 L 2 343.5897435897436"></path><path d="M 0 348.71794871794873 L 2 348.71794871794873"></path><path d="M 0 353.84615384615387 L 2 353.84615384615387"></path><path d="M 0 358.97435897435895 L 2 358.97435897435895"></path><path d="M 0 364.1025641025641 L 2 364.1025641025641"></path><path d="M 0 369.2307692307692 L 2 369.2307692307692"></path><path d="M 0 374.35897435897436 L 2 374.35897435897436"></path><path d="M 0 379.4871794871795 L 2 379.4871794871795"></path><path d="M 0 384.61538461538464 L 2 384.61538461538464"></path><path d="M 0 389.7435897435897 L 2 389.7435897435897"></path><path d="M 0 394.87179487179486 L 2 394.87179487179486"></path><path d="M 0 400 L 2 400"></path><path d="M 0 405.12820512820514 L 2 405.12820512820514"></path><path d="M 0 410.2564102564103 L 2 410.2564102564103"></path><path d="M 0 415.38461538461536 L 2 415.38461538461536"></path><path d="M 0 420.5128205128205 L 2 420.5128205128205"></path><path d="M 0 425.64102564102564 L 2 425.64102564102564"></path><path d="M 0 430.7692307692308 L 2 430.7692307692308"></path><path d="M 0 435.8974358974359 L 2 435.8974358974359"></path><path d="M 0 441.02564102564105 L 2 441.02564102564105"></path><path d="M 0 446.15384615384613 L 2 446.15384615384613"></path><path d="M 0 451.28205128205127 L 2 451.28205128205127"></path><path d="M 0 456.4102564102564 L 2 456.4102564102564"></path><path d="M 0 461.53846153846155 L 2 461.53846153846155"></path><path d="M 0 466.6666666666667 L 2 466.6666666666667"></path><path d="M 0 471.79487179487177 L 2 471.79487179487177"></path><path d="M 0 476.9230769230769 L 2 476.9230769230769"></path><path d="M 0 482.05128205128204 L 2 482.05128205128204"></path><path d="M 0 487.1794871794872 L 2 487.1794871794872"></path><path d="M 0 492.3076923076923 L 2 492.3076923076923"></path><path d="M 0 497.43589743589746 L 2 497.43589743589746"></path><path d="M 0 502.56410256410254 L 2 502.56410256410254"></path><path d="M 0 507.6923076923077 L 2 507.6923076923077"></path><path d="M 0 512.8205128205128 L 2 512.8205128205128"></path><path d="M 0 517.9487179487179 L 2 517.9487179487179"></path><path d="M 0 523.0769230769231 L 2 523.0769230769231"></path><path d="M 0 528.2051282051282 L 2 528.2051282051282"></path><path d="M 0 533.3333333333334 L 2 533.3333333333334"></path><path d="M 0 538.4615384615385 L 2 538.4615384615385"></path><path d="M 0 543.5897435897435 L 2 543.5897435897435"></path><path d="M 0 548.7179487179487 L 2 548.7179487179487"></path><path d="M 0 553.8461538461538 L 2 553.8461538461538"></path><path d="M 0 558.974358974359 L 2 558.974358974359"></path><path d="M 0 564.1025641025641 L 2 564.1025641025641"></path><path d="M 0 569.2307692307693 L 2 569.2307692307693"></path><path d="M 0 574.3589743589744 L 2 574.3589743589744"></path><path d="M 0 579.4871794871794 L 2 579.4871794871794"></path><path d="M 0 584.6153846153846 L 2 584.6153846153846"></path><path d="M 0 589.7435897435897 L 2 589.7435897435897"></path><path d="M 0 594.8717948717949 L 2 594.8717948717949"></path><path d="M 0 600 L 2 600"></path><path d="M 0 605.1282051282051 L 2 605.1282051282051"></path><path d="M 0 610.2564102564103 L 2 610.2564102564103"></path><path d="M 0 615.3846153846154 L 2 615.3846153846154"></path><path d="M 0 620.5128205128206 L 2 620.5128205128206"></path><path d="M 0 625.6410256410256 L 2 625.6410256410256"></path><path d="M 0 630.7692307692307 L 2 630.7692307692307"></path><path d="M 0 635.8974358974359 L 2 635.8974358974359"></path><path d="M 0 641.025641025641 L 2 641.025641025641"></path><path d="M 0 646.1538461538462 L 2 646.1538461538462"></path><path d="M 0 651.2820512820513 L 2 651.2820512820513"></path><path d="M 0 656.4102564102565 L 2 656.4102564102565"></path><path d="M 0 661.5384615384615 L 2 661.5384615384615"></path><path d="M 0 666.6666666666666 L 2 666.6666666666666"></path><path d="M 0 671.7948717948718 L 2 671.7948717948718"></path><path d="M 0 676.9230769230769 L 2 676.9230769230769"></path><path d="M 0 682.0512820512821 L 2 682.0512820512821"></path><path d="M 0 687.1794871794872 L 2 687.1794871794872"></path><path d="M 0 692.3076923076923 L 2 692.3076923076923"></path><path d="M 0 697.4358974358975 L 2 697.4358974358975"></path><path d="M 0 702.5641025641025 L 2 702.5641025641025"></path><path d="M 0 707.6923076923077 L 2 707.6923076923077"></path><path d="M 0 712.8205128205128 L 2 712.8205128205128"></path><path d="M 0 717.9487179487179 L 2 717.9487179487179"></path><path d="M 0 723.0769230769231 L 2 723.0769230769231"></path><path d="M 0 728.2051282051282 L 2 728.2051282051282"></path><path d="M 0 733.3333333333334 L 2 733.3333333333334"></path><path d="M 0 738.4615384615385 L 2 738.4615384615385"></path><path d="M 0 743.5897435897435 L 2 743.5897435897435"></path><path d="M 0 748.7179487179487 L 2 748.7179487179487"></path><path d="M 0 753.8461538461538 L 2 753.8461538461538"></path><path d="M 0 758.974358974359 L 2 758.974358974359"></path><path d="M 0 764.1025641025641 L 2 764.1025641025641"></path><path d="M 0 769.2307692307693 L 2 769.2307692307693"></path><path d="M 0 774.3589743589744 L 2 774.3589743589744"></path><path d="M 0 779.4871794871794 L 2 779.4871794871794"></path><path d="M 0 784.6153846153846 L 2 784.6153846153846"></path><path d="M 0 789.7435897435897 L 2 789.7435897435897"></path><path d="M 0 794.8717948717949 L 2 794.8717948717949"></path></g></svg>