<svg xmlns="http://www.w3.org/2000/svg" width="2" height="800" viewBox="0 0 2 800" id="svg">
<g stroke="rgba(48,48,48,1.0)" stroke-width="2" fill="none"><path d="M 0 800 L 2 800"></path><path d="M 0 796.4374903726018 L 2 796.4374903726018"></path><path d="M 0 792.859116401647 L 2 792.859116401647"></path><path d="M 0 789.2648074410397 L 2 789.2648074410397"></path><path d="M 0 785.6544925300875 L 2 785.6544925300875"></path><path d="M 0 782.0281003921 L 2 782.0281003921"></path><path d="M 0 778.385559432982 L 2 778.385559432982"></path><path d="M 0 774.7267977398204 L 2 774.7267977398204"></path><path d="M 0 771.0517430794633 L 2 771.0517430794633"></path><path d="M 0 767.3603228970954 L 2 767.3603228970954"></path><path d="M 0 763.6524643148043 L 2 763.6524643148043"></path><path d="M 0 759.9280941301428 L 2 759.9280941301428"></path><path d="M 0 756.1871388146826 L 2 756.1871388146826"></path><path d="M 0 752.4295245125637 L 2 752.4295245125637"></path><path d="M 0 748.6551770390358 L 2 748.6551770390358"></path><path d="M 0 744.8640218789931 L 2 744.8640218789931"></path><path d="M 0 741.0559841855049 L 2 741.0559841855049"></path><path d="M 0 737.2309887783359 L 2 737.2309887783359"></path><path d="M 0 733.3889601424634 L 2 733.3889601424634"></path><path d="M 0 729.5298224265858 L 2 729.5298224265858"></path><path d="M 0 725.6534994416254 L 2 725.6534994416254"></path><path d="M 0 721.759914659224 L 2 721.759914659224"></path><path d="M 0 717.8489912102322 L 2 717.8489912102322"></path><path d="M 0 713.9206518831916 L 2 713.9206518831916"></path><path d="M 0 709.9748191228106 L 2 709.9748191228106"></path><path d="M 0 706.0114150284332 L 2 706.0114150284332"></path><path d="M 0 702.0303613525016 L 2 702.0303613525016"></path><path d="M 0 698.0315794990103 L 2 698.0315794990103"></path><path d="M 0 694.0149905219554 L 2 694.0149905219554"></path><path d="M 0 689.9805151237755 L 2 689.9805151237755"></path><path d="M 0 685.9280736537862 L 2 685.9280736537862"></path><path d="M 0 681.8575861066078 L 2 681.8575861066078"></path><path d="M 0 677.7689721205854 L 2 677.7689721205854"></path><path d="M 0 673.6621509762033 L 2 673.6621509762033"></path><path d="M 0 669.53704159449 L 2 669.53704159449"></path><path d="M 0 665.3935625354187 L 2 665.3935625354187"></path><path d="M 0 661.2316319962989 L 2 661.2316319962989"></path><path d="M 0 657.0511678101614 L 2 657.0511678101614"></path><path d="M 0 652.852087444136 L 2 652.852087444136"></path><path d="M 0 648.6343079978232 L 2 648.6343079978232"></path><path d="M 0 644.3977462016555 L 2 644.3977462016555"></path><path d="M 0 640.1423184152555 L 2 640.1423184152555"></path><path d="M 0 635.8679406257833 L 2 635.8679406257833"></path><path d="M 0 631.5745284462786 L 2 631.5745284462786"></path><path d="M 0 627.2619971139939 L 2 627.2619971139939"></path><path d="M 0 622.930261488722 L 2 622.930261488722"></path><path d="M 0 618.5792360511145 L 2 618.5792360511145"></path><path d="M 0 614.2088349009942 L 2 614.2088349009942"></path><path d="M 0 609.8189717556576 L 2 609.8189717556576"></path><path d="M 0 605.4095599481732 L 2 605.4095599481732"></path><path d="M 0 600.9805124256695 L 2 600.9805124256695"></path><path d="M 0 596.5317417476172 L 2 596.5317417476172"></path><path d="M 0 592.0631600841015 L 2 592.0631600841015"></path><path d="M 0 587.5746792140893 L 2 587.5746792140893"></path><path d="M 0 583.0662105236876 L 2 583.0662105236876"></path><path d="M 0 578.5376650043926 L 2 578.5376650043926"></path><path d="M 0 573.9889532513346 L 2 573.9889532513346"></path><path d="M 0 569.4199854615108 L 2 569.4199854615108"></path><path d="M 0 564.8306714320138 L 2 564.8306714320138"></path><path d="M 0 560.2209205582503 L 2 560.2209205582503"></path><path d="M 0 555.5906418321524 L 2 555.5906418321524"></path><path d="M 0 550.9397438403803 L 2 550.9397438403803"></path><path d="M 0 546.2681347625185 L 2 546.2681347625185"></path><path d="M 0 541.5757223692624 L 2 541.5757223692624"></path><path d="M 0 536.862414020598 L 2 536.862414020598"></path><path d="M 0 532.1281166639726 L 2 532.1281166639726"></path><path d="M 0 527.3727368324569 L 2 527.3727368324569"></path><path d="M 0 522.5961806429018 L 2 522.5961806429018"></path><path d="M 0 517.7983537940827 L 2 517.7983537940827"></path><path d="M 0 512.9791615648394 L 2 512.9791615648394"></path><path d="M 0 508.1385088122047 L 2 508.1385088122047"></path><path d="M 0 503.2762999695274 L 2 503.2762999695274"></path><path d="M 0 498.39243904458453 L 2 498.39243904458453"></path><path d="M 0 493.4868296176867 L 2 493.4868296176867"></path><path d="M 0 488.55937483977436 L 2 488.55937483977436"></path><path d="M 0 483.60997743050575 L 2 483.60997743050575"></path><path d="M 0 478.6385396763369 L 2 478.6385396763369"></path><path d="M 0 473.6449634285914 L 2 473.6449634285914"></path><path d="M 0 468.6291501015239 L 2 468.6291501015239"></path><path d="M 0 463.59100067037275 L 2 463.59100067037275"></path><path d="M 0 458.53041566940556 L 2 458.53041566940556"></path><path d="M 0 453.44729518995564 L 2 453.44729518995564"></path><path d="M 0 448.3415388784492 L 2 448.3415388784492"></path><path d="M 0 443.2130459344239 L 2 443.2130459344239"></path><path d="M 0 438.06171510853983 L 2 438.06171510853983"></path><path d="M 0 432.8874447005794 L 2 432.8874447005794"></path><path d="M 0 427.69013255744017 L 2 427.69013255744017"></path><path d="M 0 422.46967607111765 L 2 422.46967607111765"></path><path d="M 0 417.2259721766802 L 2 417.2259721766802"></path><path d="M 0 411.95891735023383 L 2 411.95891735023383"></path><path d="M 0 406.66840760687865 L 2 406.66840760687865"></path><path d="M 0 401.35433849865467 L 2 401.35433849865467"></path><path d="M 0 396.0166051124827 L 2 396.0166051124827"></path><path d="M 0 390.65510206808995 L 2 390.65510206808995"></path><path d="M 0 385.26972351593076 L 2 385.26972351593076"></path><path d="M 0 379.8603631350977 L 2 379.8603631350977"></path><path d="M 0 374.4269141312209 L 2 374.4269141312209"></path><path d="M 0 368.9692692343615 L 2 368.9692692343615"></path><path d="M 0 363.48732069689186 L 2 363.48732069689186"></path><path d="M 0 357.98096029137037 L 2 357.98096029137037"></path><path d="M 0 352.450079308403 L 2 352.450079308403"></path><path d="M 0 346.8945685544984 L 2 346.8945685544984"></path><path d="M 0 341.31431834991145 L 2 341.31431834991145"></path><path d="M 0 335.709218526478 L 2 335.709218526478"></path><path d="M 0 330.0791584254405 L 2 330.0791584254405"></path><path d="M 0 324.4240268952617 L 2 324.4240268952617"></path><path d="M 0 318.7437122894323 L 2 318.7437122894323"></path><path d="M 0 313.03810246426565 L 2 313.03810246426565"></path><path d="M 0 307.3070847766835 L 2 307.3070847766835"></path><path d="M 0 301.55054608199316 L 2 301.55054608199316"></path><path d="M 0 295.7683727316519 L 2 295.7683727316519"></path><path d="M 0 289.96045057102606 L 2 289.96045057102606"></path><path d="M 0 284.1266649371346 L 2 284.1266649371346"></path><path d="M 0 278.2669006563874 L 2 278.2669006563874"></path><path d="M 0 272.3810420423092 L 2 272.3810420423092"></path><path d="M 0 266.4689728932585 L 2 266.4689728932585"></path><path d="M 0 260.5305764901309 L 2 260.5305764901309"></path><path d="M 0 254.56573559405683 L 2 254.56573559405683"></path><path d="M 0 248.5743324440848 L 2 248.5743324440848"></path><path d="M 0 242.55624875485864 L 2 242.55624875485864"></path><path d="M 0 236.5113657142806 L 2 236.5113657142806"></path><path d="M 0 230.43956398116688 L 2 230.43956398116688"></path><path d="M 0 224.34072368289117 L 2 224.34072368289117"></path><path d="M 0 218.21472441301717 L 2 218.21472441301717"></path><path d="M 0 212.06144522892237 L 2 212.06144522892237"></path><path d="M 0 205.88076464941105 L 2 205.88076464941105"></path><path d="M 0 199.67256065231413 L 2 199.67256065231413"></path><path d="M 0 193.43671067208174 L 2 193.43671067208174"></path><path d="M 0 187.17309159736237 L 2 187.17309159736237"></path><path d="M 0 180.88157976857292 L 2 180.88157976857292"></path><path d="M 0 174.56205097545717 L 2 174.56205097545717"></path><path d="M 0 168.21438045463378 L 2 168.21438045463378"></path><path d="M 0 161.83844288713294 L 2 161.83844288713294"></path><path d="M 0 155.4341123959225 L 2 155.4341123959225"></path><path d="M 0 149.00126254342172 L 2 149.00126254342172"></path><path d="M 0 142.53976632900708 L 2 142.53976632900708"></path><path d="M 0 136.04949618650357 L 2 136.04949618650357"></path><path d="M 0 129.53032398166602 L 2 129.53032398166602"></path><path d="M 0 122.98212100965043 L 2 122.98212100965043"></path><path d="M 0 116.40475799247224 L 2 116.40475799247224"></path><path d="M 0 109.79810507645516 L 2 109.79810507645516"></path><path d="M 0 103.16203182966478 L 2 103.16203182966478"></path><path d="M 0 96.49640723933749 L 2 96.49640723933749"></path><path d="M 0 89.80109970929061 L 2 89.80109970929061"></path><path d="M 0 83.07597705732564 L 2 83.07597705732564"></path><path d="M 0 76.32090651261956 L 2 76.32090651261956"></path><path d="M 0 69.53575471310182 L 2 69.53575471310182"></path><path d="M 0 62.72038770282302 L 2 62.72038770282302"></path><path d="M 0 55.87467092930842 L 2 55.87467092930842"></path><path d="M 0 48.99846924090366 L 2 48.99846924090366"></path><path d="M 0 42.09164688410533 L 2 42.09164688410533"></path><path d="M 0 35.15406750088118 L 2 35.15406750088118"></path><path d="M 0 28.18559412597733 L 2 28.18559412597733"></path><path d="M 0 21.18608918421569 L 2 21.18608918421569"></path><path d="M 0 14.155414487776397 L 2 14.155414487776397"></path><path d="M 0 7.09343123347071 L 2 7.09343123347071"></path></g></svg>